<svg width="16" height="14" viewBox="0 0 16 14" fill="none" xmlns="http://www.w3.org/2000/svg">
<path d="M12.6664 13H13.34C13.9875 13 14.3112 13 14.4896 12.865C14.6451 12.7474 14.7413 12.5677 14.7529 12.3731C14.7662 12.1497 14.5867 11.8804 14.2275 11.3417L12.2206 8.33128C11.9239 7.88616 11.7755 7.66359 11.5885 7.58604C11.425 7.51823 11.2412 7.51823 11.0777 7.58604C10.8907 7.66359 10.7423 7.88616 10.4456 8.33128L9.94945 9.07547M12.6664 13L7.54344 5.60012C7.24881 5.17455 7.1015 4.96176 6.91748 4.88696C6.75651 4.82152 6.57635 4.82152 6.41538 4.88696C6.23137 4.96176 6.08405 5.17455 5.78943 5.60012L1.82523 11.3262C1.44988 11.8684 1.26221 12.1394 1.27289 12.3649C1.2822 12.5612 1.37768 12.7435 1.53382 12.8629C1.7131 13 2.04281 13 2.70224 13H12.6664ZM13.9998 3C13.9998 4.10457 13.1043 5 11.9998 5C10.8952 5 9.99976 4.10457 9.99976 3C9.99976 1.89543 10.8952 1 11.9998 1C13.1043 1 13.9998 1.89543 13.9998 3Z" stroke="currentColor" stroke-opacity="1" stroke-linecap="round" stroke-linejoin="round"/>
</svg>
